P3
9 6
255
219 234 255
219 234 255
219 234 255
219 234 255
219 234 255
219 234 255
219 234 255
219 234 255
219 234 255
221 235 255
217 231 250
179 187 198
186 204 225
199 212 229
189 201 216
217 230 249
221 235 255
221 235 255
164 177 199
144 151 161
144 152 168
158 167 180
163 171 180
161 170 180
174 181 192
165 192 205
168 177 202
89 106 125
100 127 130
130 150 160
142 149 164
138 140 143
132 134 137
124 126 131
120 130 144
104 130 136
98 135 125
116 133 161
101 106 127
81 112 114
96 83 92
91 95 100
100 118 141
117 119 156
88 115 126
98 86 125
129 132 167
122 143 162
62 124 124
100 115 114
111 128 144
102 151 170
116 118 139
109 120 140
