P3
49 32
255
211 230 255
211 230 255
211 230 255
211 230 255
211 230 255
211 230 255
211 230 255
211 230 255
211 230 255
211 230 255
211 230 255
211 230 255
211 230 255
211 230 255
211 230 255
211 230 255
211 230 255
211 230 255
211 230 255
211 230 255
211 230 255
211 230 255
211 230 255
211 230 255
211 230 255
211 230 255
211 230 255
211 230 255
211 230 255
211 230 255
211 230 255
211 230 255
211 230 255
211 230 255
211 230 255
211 230 255
211 230 255
211 230 255
211 230 255
211 230 255
211 230 255
211 230 255
211 230 255
211 230 255
211 230 255
211 230 255
211 230 255
211 230 255
211 230 255
212 230 255
212 230 255
212 230 255
212 230 255
212 230 255
212 230 255
212 230 255
212 230 255
212 230 255
212 230 255
212 230 255
212 230 255
212 230 255
212 230 255
212 230 255
212 230 255
212 230 255
212 230 255
212 230 255
212 230 255
212 230 255
212 230 255
212 230 255
212 230 255
212 230 255
212 230 255
212 230 255
212 230 255
212 230 255
212 230 255
212 230 255
212 230 255
212 230 255
212 230 255
212 230 255
212 230 255
212 230 255
212 230 255
212 230 255
212 230 255
212 230 255
212 230 255
212 230 255
212 230 255
212 230 255
212 230 255
212 230 255
212 230 255
212 230 255
212 230 255
212 230 255
212 230 255
212 230 255
212 230 255
212 230 255
212 230 255
212 230 255
212 230 255
212 230 255
212 230 255
212 230 255
212 230 255
212 230 255
212 230 255
212 230 255
212 230 255
212 230 255
212 230 255
212 230 255
212 230 255
212 230 255
212 230 255
212 230 255
212 230 255
212 230 255
212 230 255
212 230 255
212 230 255
212 230 255
212 230 255
212 230 255
212 230 255
212 230 255
212 230 255
212 230 255
212 230 255
212 230 255
212 230 255
212 230 255
212 230 255
212 230 255
212 230 255
212 230 255
212 230 255
212 230 255
212 230 255
212 230 255
212 230 255
212 230 255
212 230 255
212 230 255
212 230 255
212 230 255
212 230 255
212 230 255
212 230 255
212 230 255
212 230 255
212 230 255
212 230 255
212 230 255
212 230 255
212 230 255
212 230 255
212 230 255
212 230 255
212 230 255
212 230 255
212 230 255
212 230 255
212 230 255
212 230 255
212 230 255
212 230 255
212 230 255
212 230 255
212 230 255
212 230 255
212 230 255
212 230 255
212 230 255
212 230 255
212 230 255
212 230 255
212 230 255
212 230 255
212 230 255
212 230 255
212 230 255
212 230 255
212 230 255
212 230 255
212 230 255
212 230 255
212 230 255
212 230 255
212 230 255
212 230 255
212 230 255
212 230 255
212 230 255
212 230 255
212 230 255
212 230 255
212 230 255
212 230 255
212 230 255
212 230 255
212 230 255
212 230 255
212 230 255
212 230 255
212 230 255
212 230 255
212 230 255
212 230 255
212 230 255
212 230 255
212 230 255
212 230 255
212 230 255
212 230 255
212 230 255
212 230 255
212 230 255
212 230 255
212 230 255
212 230 255
212 230 255
212 230 255
212 230 255
212 230 255
212 230 255
212 230 255
212 230 255
212 230 255
212 230 255
212 230 255
212 230 255
212 230 255
212 230 255
212 230 255
212 230 255
212 230 255
212 230 255
212 230 255
213 231 255
213 231 255
213 231 255
213 230 255
213 230 255
213 230 255
213 230 255
213 230 255
213 230 255
213 230 255
213 230 255
213 230 255
213 230 255
213 230 255
213 230 255
213 230 255
213 230 255
213 230 255
213 230 255
213 230 255
213 230 255
213 230 255
213 230 255
213 230 255
213 230 255
213 230 255
213 230 255
213 230 255
213 230 255
213 230 255
213 230 255
213 230 255
213 230 255
213 230 255
213 230 255
213 230 255
213 230 255
213 230 255
213 230 255
213 230 255
213 230 255
213 230 255
213 230 255
213 230 255
213 231 255
213 231 255
213 231 255
213 231 255
213 231 255
213 231 255
213 231 255
213 231 255
213 231 255
213 231 255
213 231 255
213 231 255
213 231 255
213 231 255
213 231 255
213 231 255
213 231 255
213 231 255
213 231 255
213 231 255
213 231 255
213 231 255
213 231 255
213 231 255
213 231 255
213 231 255
213 231 255
213 231 255
213 231 255
213 231 255
213 231 255
213 231 255
213 231 255
213 231 255
213 231 255
213 231 255
213 231 255
213 231 255
213 231 255
213 231 255
213 231 255
213 231 255
213 231 255
213 231 255
213 231 255
213 231 255
213 231 255
213 231 255
213 231 255
213 231 255
213 231 255
213 231 255
213 231 255
213 231 255
213 231 255
213 231 255
213 231 255
213 231 255
213 231 255
213 231 255
213 231 255
213 231 255
213 231 255
213 231 255
213 231 255
213 231 255
213 231 255
213 231 255
213 231 255
213 231 255
213 231 255
213 231 255
213 231 255
213 231 255
213 231 255
213 231 255
213 231 255
213 231 255
213 231 255
213 231 255
213 231 255
213 231 255
213 231 255
213 231 255
213 231 255
213 231 255
213 231 255
213 231 255
213 231 255
213 231 255
213 231 255
213 231 255
213 231 255
213 231 255
213 231 255
213 231 255
213 231 255
213 231 255
213 231 255
213 231 255
213 231 255
213 231 255
213 231 255
213 231 255
213 231 255
213 231 255
213 231 255
213 231 255
213 231 255
213 231 255
213 231 255
213 231 255
213 231 255
213 231 255
213 231 255
213 231 255
213 231 255
213 231 255
213 231 255
213 231 255
213 231 255
213 231 255
213 231 255
213 231 255
213 231 255
213 231 255
213 231 255
213 231 255
213 231 255
213 231 255
213 231 255
213 231 255
213 231 255
213 231 255
213 231 255
213 231 255
213 231 255
213 231 255
213 231 255
213 231 255
213 231 255
213 231 255
213 231 255
213 231 255
213 231 255
213 231 255
213 231 255
213 231 255
213 231 255
213 231 255
213 231 255
213 231 255
214 231 255
214 231 255
214 231 255
214 231 255
214 231 255
214 231 255
214 231 255
214 231 255
214 231 255
214 231 255
214 231 255
214 231 255
214 231 255
214 231 255
214 231 255
214 231 255
214 231 255
214 231 255
213 231 255
213 231 255
213 231 255
213 231 255
214 231 255
213 231 255
213 231 255
213 231 255
214 231 255
213 231 255
214 231 255
213 231 255
213 231 255
214 231 255
214 231 255
214 231 255
214 231 255
214 231 255
214 231 255
214 231 255
214 231 255
214 231 255
214 231 255
214 231 255
214 231 255
214 231 255
214 231 255
214 231 255
214 231 255
214 231 255
214 231 255
214 231 255
214 231 255
214 231 255
214 231 255
214 231 255
214 231 255
214 231 255
214 231 255
214 231 255
214 231 255
214 231 255
214 231 255
214 231 255
214 231 255
214 231 255
214 231 255
214 231 255
214 231 255
214 231 255
214 231 255
214 231 255
214 231 255
214 231 255
214 231 255
214 231 255
214 231 255
214 231 255
214 231 255
214 231 255
214 231 255
214 231 255
214 231 255
214 231 255
214 231 255
214 231 255
214 231 255
214 231 255
214 231 255
214 231 255
214 231 255
214 231 255
214 231 255
214 231 255
214 231 255
214 231 255
214 231 255
214 231 255
214 231 255
214 231 255
214 231 255
214 231 255
214 231 255
214 231 255
214 231 255
214 231 255
214 231 255
214 231 255
214 231 255
214 231 255
214 231 255
214 231 255
214 231 255
214 231 255
214 231 255
214 231 255
214 231 255
214 231 255
214 231 255
214 231 255
214 231 255
214 231 255
214 231 255
214 231 255
214 231 255
214 231 255
214 231 255
214 231 255
214 231 255
214 231 255
214 231 255
214 231 255
214 231 255
214 231 255
214 231 255
214 231 255
214 231 255
214 231 255
214 231 255
214 231 255
214 231 255
214 231 255
214 231 255
214 231 255
214 231 255
214 231 255
214 231 255
214 231 255
214 231 255
214 231 255
214 231 255
214 231 255
214 231 255
214 231 255
214 231 255
214 231 255
214 231 255
214 231 255
214 231 255
214 231 255
214 231 255
214 231 255
214 231 255
214 231 255
214 231 255
214 231 255
214 231 255
214 231 255
214 231 255
214 231 255
214 231 255
214 231 255
214 231 255
214 231 255
214 231 255
214 231 255
214 231 255
214 231 255
214 231 255
214 231 255
214 231 255
214 231 255
214 231 255
214 231 255
214 231 255
214 231 255
214 231 255
214 231 255
214 231 255
214 231 255
214 231 255
214 231 255
214 231 255
214 231 255
214 231 255
214 231 255
214 231 255
214 231 255
215 232 255
215 232 255
215 232 255
215 232 255
215 232 255
215 232 255
215 232 255
214 232 255
214 232 255
214 232 255
214 232 255
214 232 255
214 232 255
214 232 255
214 232 255
214 232 255
214 232 255
214 232 255
214 232 255
214 232 255
214 232 255
214 232 255
214 232 255
214 232 255
214 232 255
214 232 255
214 232 255
214 232 255
214 232 255
214 232 255
214 232 255
214 232 255
214 232 255
214 232 255
214 232 255
214 232 255
214 232 255
214 232 255
214 232 255
215 232 255
214 232 255
215 232 255
215 232 255
215 232 255
215 232 255
215 232 255
215 232 255
215 232 255
215 232 255
215 232 255
215 232 255
215 232 255
215 232 255
215 232 255
215 232 255
215 232 255
215 232 255
215 232 255
215 232 255
215 232 255
215 232 255
215 232 255
215 232 255
215 232 255
215 232 255
215 232 255
215 232 255
215 232 255
215 232 255
215 232 255
215 232 255
215 232 255
215 232 255
215 232 255
215 232 255
215 232 255
215 232 255
215 232 255
215 232 255
215 232 255
215 232 255
215 232 255
215 232 255
215 232 255
215 232 255
215 232 255
215 232 255
215 232 255
215 232 255
215 232 255
215 232 255
215 232 255
215 232 255
215 232 255
215 232 255
215 232 255
215 232 255
215 232 255
215 232 255
215 232 255
215 232 255
215 232 255
215 232 255
215 232 255
215 232 255
215 232 255
215 232 255
215 232 255
215 232 255
215 232 255
215 232 255
215 232 255
215 232 255
215 232 255
215 232 255
215 232 255
215 232 255
215 232 255
215 232 255
215 232 255
215 232 255
215 232 255
215 232 255
215 232 255
215 232 255
215 232 255
215 232 255
215 232 255
215 232 255
215 232 255
215 232 255
215 232 255
215 232 255
215 232 255
215 232 255
215 232 255
215 232 255
215 232 255
215 232 255
215 232 255
215 232 255
215 232 255
215 232 255
215 232 255
215 232 255
215 232 255
215 232 255
215 232 255
215 232 255
215 232 255
215 232 255
215 232 255
215 232 255
215 232 255
215 232 255
215 232 255
215 232 255
215 232 255
215 232 255
215 232 255
215 232 255
215 232 255
215 232 255
215 232 255
215 232 255
215 232 255
215 232 255
215 232 255
215 232 255
215 232 255
215 232 255
215 232 255
215 232 255
215 232 255
215 232 255
215 232 255
215 232 255
215 232 255
215 232 255
215 232 255
215 232 255
215 232 255
215 232 255
215 232 255
215 232 255
215 232 255
215 232 255
215 232 255
215 232 255
215 232 255
215 232 255
215 232 255
215 232 255
215 232 255
215 232 255
215 232 255
215 232 255
215 232 255
215 232 255
215 232 255
215 232 255
215 232 255
215 232 255
215 232 255
215 232 255
215 232 255
215 232 255
215 232 255
215 232 255
215 232 255
215 232 255
215 232 255
215 232 255
215 232 255
215 232 255
215 232 255
215 232 255
215 232 255
215 232 255
215 232 255
215 232 255
215 232 255
215 232 255
215 232 255
215 232 255
215 232 255
215 232 255
215 232 255
215 232 255
215 232 255
215 232 255
215 232 255
215 232 255
215 232 255
215 232 255
215 232 255
215 232 255
215 232 255
215 232 255
215 232 255
215 232 255
215 232 255
215 232 255
215 232 255
216 232 255
216 232 255
216 232 255
216 232 255
216 232 255
216 232 255
216 232 255
216 232 255
216 232 255
216 232 255
216 232 255
216 232 255
216 232 255
216 232 255
216 232 255
216 232 255
216 232 255
216 232 255
216 232 255
216 232 255
216 232 255
216 232 255
216 232 255
216 232 255
216 232 255
216 232 255
216 232 255
216 232 255
216 232 255
216 232 255
216 232 255
216 232 255
216 232 255
216 232 255
216 232 255
216 232 255
216 232 255
216 232 255
216 232 255
216 232 255
216 232 255
216 232 255
216 232 255
216 232 255
216 232 255
216 232 255
216 232 255
216 232 255
216 232 255
216 232 255
216 232 255
216 232 255
216 232 255
216 232 255
216 232 255
216 232 255
216 232 255
216 232 255
216 232 255
216 232 255
216 232 255
216 232 255
216 232 255
216 232 255
216 232 255
216 232 255
216 232 255
216 232 255
216 232 255
216 232 255
216 232 255
216 232 255
216 232 255
216 232 255
216 232 255
216 232 255
216 232 255
216 232 255
216 232 255
216 232 255
216 232 255
216 232 255
216 232 255
216 232 255
216 232 255
216 232 255
216 232 255
216 232 255
216 232 255
216 232 255
216 232 255
216 232 255
216 232 255
216 232 255
216 232 255
216 232 255
216 232 255
216 232 255
216 232 255
216 233 255
216 232 255
216 233 255
216 232 255
216 232 255
216 232 255
216 232 255
216 232 255
216 232 255
216 232 255
216 232 255
216 232 255
216 232 255
216 232 255
216 232 255
216 232 255
216 232 255
216 232 255
216 232 255
216 232 255
216 232 255
216 232 255
216 232 255
216 232 255
216 232 255
216 232 255
216 232 255
216 232 255
216 232 255
216 232 255
216 232 255
216 232 255
216 232 255
216 232 255
216 232 255
216 232 255
216 232 255
216 232 255
216 232 255
216 232 255
216 232 255
216 232 255
216 232 255
216 232 255
216 233 255
216 233 255
216 232 255
216 233 255
216 233 255
216 233 255
216 233 255
216 233 255
216 233 255
216 233 255
216 233 255
216 233 255
216 233 255
216 233 255
216 233 255
216 233 255
216 233 255
216 233 255
216 233 255
216 233 255
216 233 255
216 233 255
216 233 255
216 233 255
216 233 255
216 233 255
216 233 255
216 233 255
216 233 255
216 233 255
216 233 255
216 233 255
216 233 255
216 233 255
216 233 255
216 233 255
216 233 255
216 233 255
216 233 255
216 233 255
216 233 255
216 233 255
216 233 255
216 233 255
216 233 255
216 233 255
216 233 255
216 233 255
216 233 255
216 233 255
216 233 255
216 233 255
216 233 255
216 233 255
217 233 255
217 233 255
217 233 255
217 233 255
217 233 255
217 233 255
217 233 255
217 233 255
217 233 255
217 233 255
217 233 255
217 233 255
217 233 255
217 233 255
217 233 255
217 233 255
217 233 255
217 233 255
217 233 255
217 233 255
217 233 255
217 233 255
217 233 255
217 233 255
217 233 255
217 233 255
217 233 255
217 233 255
217 233 255
217 233 255
217 233 255
217 233 255
217 233 255
217 233 255
217 233 255
217 233 255
217 233 255
217 233 255
217 233 255
217 233 255
217 233 255
217 233 255
217 233 255
217 233 255
217 233 255
217 233 255
217 233 255
217 233 255
217 233 255
217 233 255
217 233 255
217 233 255
217 233 255
217 233 255
217 233 255
217 233 255
217 233 255
217 233 255
217 233 255
217 233 255
217 233 255
217 233 255
217 233 255
217 233 255
217 233 255
217 233 255
217 233 255
217 233 255
217 233 255
217 233 255
217 233 255
217 233 255
217 233 255
217 233 255
217 233 255
217 233 255
217 233 255
217 233 255
217 233 255
217 233 255
217 233 255
217 233 255
217 233 255
217 233 255
217 233 255
217 233 255
217 233 255
217 233 255
217 233 255
217 233 255
217 233 255
217 233 255
217 233 255
217 233 255
217 233 255
217 233 255
217 233 255
217 233 255
217 233 255
217 233 255
217 233 255
217 233 255
217 233 255
217 233 255
217 233 255
217 233 255
217 233 255
217 233 255
217 233 255
217 233 255
217 233 255
217 233 255
217 233 255
217 233 255
217 233 255
217 233 255
217 233 255
217 233 255
217 233 255
217 233 255
217 233 255
217 233 255
217 233 255
217 233 255
217 233 255
217 233 255
217 233 255
217 233 255
217 233 255
217 233 255
217 233 255
217 233 255
217 233 255
217 233 255
217 233 255
217 233 255
217 233 255
217 233 255
217 233 255
217 233 255
217 233 255
217 233 255
217 233 255
217 233 255
217 233 255
217 233 255
217 233 255
217 233 255
217 233 255
217 233 255
217 233 255
217 233 255
217 233 255
217 233 255
217 233 255
217 233 255
217 233 255
217 233 255
217 233 255
217 233 255
217 233 255
217 233 255
217 233 255
217 233 255
217 233 255
217 233 255
217 233 255
217 233 255
217 233 255
217 233 255
217 233 255
217 233 255
217 233 255
217 233 255
217 233 255
217 233 255
217 233 255
217 233 255
217 233 255
217 233 255
217 233 255
217 233 255
217 233 255
217 233 255
217 233 255
217 233 255
217 233 255
217 233 255
217 233 255
217 233 255
217 233 255
217 233 255
217 233 255
217 233 255
217 233 255
217 233 255
218 233 255
218 233 255
218 233 255
218 233 255
218 233 255
218 233 255
218 233 255
218 233 255
218 233 255
218 233 255
218 233 255
218 233 255
218 233 255
218 233 255
218 233 255
218 233 255
218 233 255
218 233 255
218 233 255
218 233 255
218 233 255
218 233 255
218 233 255
218 233 255
218 233 255
218 233 255
218 233 255
218 233 255
218 233 255
218 233 255
218 233 255
218 233 255
218 233 255
218 233 255
218 233 255
218 233 255
218 233 255
218 233 255
218 233 255
218 233 255
218 233 255
218 233 255
218 233 255
218 233 255
218 233 255
218 233 255
218 233 255
218 233 255
218 233 255
218 233 255
218 233 255
218 233 255
218 233 255
218 233 255
218 233 255
218 233 255
218 233 255
218 233 255
218 233 255
218 233 255
218 233 255
218 233 255
218 233 255
218 233 255
218 233 255
218 233 255
218 233 255
218 233 255
218 233 255
218 233 255
218 233 255
218 233 255
218 233 255
218 233 255
218 233 255
218 233 255
218 233 255
218 233 255
218 233 255
218 233 255
218 233 255
218 233 255
218 233 255
218 233 255
218 233 255
218 233 255
218 233 255
218 233 255
218 233 255
218 233 255
218 233 255
218 233 255
218 233 255
218 233 255
218 233 255
218 233 255
218 233 255
218 233 255
218 234 255
218 234 255
218 234 255
218 234 255
218 234 255
218 234 255
218 234 255
218 234 255
218 234 255
218 234 255
218 234 255
218 234 255
218 234 255
218 234 255
218 234 255
218 234 255
218 234 255
218 234 255
218 234 255
218 234 255
218 234 255
218 234 255
218 234 255
218 234 255
218 234 255
218 234 255
218 234 255
218 234 255
218 234 255
218 234 255
218 234 255
218 234 255
218 234 255
218 234 255
218 234 255
218 234 255
218 234 255
218 234 255
218 234 255
218 234 255
218 234 255
218 234 255
218 234 255
218 234 255
218 234 255
218 234 255
218 234 255
218 234 255
218 234 255
218 234 255
218 234 255
218 234 255
218 234 255
218 234 255
218 234 255
218 234 255
218 234 255
218 234 255
218 234 255
218 234 255
218 234 255
218 234 255
218 234 255
218 234 255
218 234 255
218 234 255
218 234 255
218 234 255
218 234 255
218 234 255
218 234 255
218 234 255
218 234 255
218 234 255
218 234 255
218 234 255
218 234 255
218 234 255
218 234 255
218 234 255
218 234 255
218 234 255
218 234 255
218 234 255
218 234 255
218 234 255
218 234 255
218 234 255
218 234 255
218 234 255
218 234 255
218 234 255
218 234 255
218 234 255
218 234 255
218 234 255
218 234 255
218 234 255
219 234 255
219 234 255
219 234 255
219 234 255
219 234 255
219 234 255
219 234 255
219 234 255
219 234 255
219 234 255
219 234 255
219 234 255
219 234 255
219 234 255
219 234 255
219 234 255
219 234 255
219 234 255
219 234 255
219 234 255
219 234 255
219 234 255
219 234 255
219 234 255
219 234 255
219 234 255
219 234 255
219 234 255
219 234 255
219 234 255
219 234 255
219 234 255
219 234 255
219 234 255
219 234 255
219 234 255
219 234 255
219 234 255
219 234 255
219 234 255
219 234 255
219 234 255
219 234 255
219 234 255
219 234 255
219 234 255
219 234 255
219 234 255
219 234 255
219 234 255
219 234 255
219 234 255
219 234 255
219 234 255
219 234 255
219 234 255
219 234 255
219 234 255
219 234 255
219 234 255
219 234 255
219 234 255
219 234 255
219 234 255
219 234 255
219 234 255
219 234 255
219 234 255
219 234 255
219 234 255
219 234 255
219 234 255
219 234 255
219 234 255
219 234 255
219 234 255
219 234 255
219 234 255
219 234 255
219 234 255
219 234 255
219 234 255
219 234 255
219 234 255
219 234 255
219 234 255
219 234 255
219 234 255
219 234 255
219 234 255
219 234 255
219 234 255
219 234 255
219 234 255
219 234 255
219 234 255
219 234 255
219 234 255
