P3
49 32
255
220 234 255
220 234 255
220 234 255
220 234 255
220 234 255
220 234 255
220 234 255
220 234 255
220 234 255
220 234 255
220 234 255
220 234 255
220 234 255
220 234 255
220 234 255
220 234 255
220 234 255
220 234 255
220 234 255
220 234 255
220 234 255
220 234 255
220 234 255
220 234 255
220 234 255
220 234 255
220 234 255
220 234 255
220 234 255
220 234 255
220 234 255
220 234 255
220 234 255
220 234 255
220 234 255
220 234 255
220 234 255
220 234 255
220 234 255
220 234 255
220 234 255
220 234 255
220 234 255
220 234 255
220 234 255
220 234 255
220 234 255
220 234 255
220 234 255
220 235 255
220 235 255
220 235 255
220 235 255
220 235 255
220 235 255
220 235 255
220 235 255
220 235 255
220 235 255
220 235 255
220 235 255
220 235 255
220 235 255
220 235 255
220 235 255
220 235 255
220 235 255
220 235 255
220 235 255
220 235 255
220 235 255
220 235 255
220 235 255
220 235 255
220 235 255
220 235 255
220 235 255
220 235 255
220 235 255
220 235 255
220 235 255
220 235 255
220 235 255
220 235 255
220 235 255
220 235 255
220 235 255
220 235 255
220 235 255
220 235 255
220 235 255
220 235 255
220 235 255
220 235 255
220 235 255
220 235 255
220 235 255
220 235 255
220 235 255
220 235 255
220 235 255
220 235 255
220 235 255
220 235 255
220 235 255
220 235 255
220 235 255
220 235 255
220 235 255
221 235 255
220 235 255
220 235 255
221 235 255
220 235 255
220 235 255
220 235 255
220 235 255
220 235 255
220 235 255
220 235 255
220 235 255
221 235 255
220 235 255
220 235 255
220 235 255
220 235 255
220 235 255
220 235 255
220 235 255
220 235 255
220 235 255
220 235 255
220 235 255
221 235 255
220 235 255
220 235 255
220 235 255
220 235 255
220 235 255
221 235 255
220 235 255
220 235 255
220 235 255
221 235 255
220 235 255
221 235 255
220 235 255
221 235 255
221 235 255
221 235 255
221 235 255
221 235 255
221 235 255
221 235 255
221 235 255
221 235 255
221 235 255
221 235 255
221 235 255
221 235 255
221 235 255
221 235 255
221 235 255
207 217 233
175 175 183
170 169 175
172 170 177
198 206 221
208 223 244
188 204 225
186 201 223
187 203 224
205 220 240
220 235 255
221 235 255
221 235 255
215 227 245
201 211 225
193 202 214
189 197 208
199 208 222
202 213 227
216 229 247
221 235 255
221 235 255
221 235 255
221 235 255
221 235 255
221 235 255
221 235 255
221 235 255
221 235 255
221 235 255
221 235 255
221 235 255
221 235 255
221 235 255
221 235 255
221 235 255
221 235 255
221 235 255
221 235 255
221 235 255
221 235 255
221 235 255
221 235 255
221 235 255
221 235 255
221 235 255
221 235 255
220 234 253
168 166 171
125 101 85
124 98 80
124 98 79
139 132 140
144 157 184
115 129 151
96 106 128
103 116 140
140 161 188
151 172 199
170 189 213
200 212 227
180 186 195
166 172 180
161 170 180
159 169 180
158 169 180
159 169 180
162 170 180
167 173 180
187 194 204
211 223 239
221 235 255
221 235 255
221 235 255
221 235 255
221 235 255
221 235 255
221 235 255
221 235 255
221 235 255
221 235 255
221 235 255
222 236 255
222 236 255
222 236 255
222 236 255
222 236 255
222 236 255
222 236 255
222 236 255
222 236 255
222 236 255
222 236 255
222 236 255
222 236 255
221 235 254
157 150 152
119 95 77
122 97 78
117 93 75
135 130 148
142 157 196
140 159 187
132 150 177
125 143 170
140 161 190
148 171 201
149 169 196
164 172 183
167 173 180
161 170 180
157 168 180
154 167 180
153 166 180
152 166 180
153 166 180
155 167 180
158 168 180
162 171 180
168 174 180
197 205 217
221 235 254
222 236 255
222 236 255
222 236 255
222 236 255
222 236 255
222 236 255
222 236 255
222 236 255
222 236 255
222 236 255
222 236 255
222 236 255
222 236 255
222 236 255
222 236 255
222 236 255
222 236 255
222 236 255
222 236 255
222 236 255
222 236 255
222 236 255
197 205 218
116 92 74
115 91 73
116 91 74
134 127 129
147 162 194
115 124 176
140 158 188
139 157 186
137 154 184
141 160 189
144 163 190
168 172 179
167 173 180
161 170 180
157 168 180
154 167 180
152 166 180
151 165 180
151 165 180
152 166 180
153 166 180
155 167 180
158 169 180
162 171 180
168 174 180
194 201 211
221 235 254
222 236 255
222 236 255
222 236 255
222 236 255
222 236 255
222 236 255
222 236 255
222 236 255
222 236 255
222 236 255
221 235 254
222 235 254
222 236 255
222 236 255
222 236 255
222 236 255
221 235 254
222 236 255
221 235 254
219 233 252
220 234 253
165 164 170
113 89 71
112 88 71
112 89 73
156 168 187
135 149 189
135 147 196
140 144 172
139 138 178
150 137 190
129 142 166
164 168 175
171 175 180
164 172 180
160 170 180
157 168 180
155 167 180
154 167 180
153 166 180
153 166 180
153 166 180
154 167 180
156 168 180
158 169 180
161 170 180
165 172 180
172 176 180
200 208 219
221 235 254
222 236 255
222 236 255
222 236 255
222 235 254
222 236 255
222 236 255
222 236 255
166 182 204
166 182 204
165 181 203
162 179 202
163 179 201
165 182 204
161 178 200
155 172 195
160 177 199
159 176 198
158 175 198
161 178 200
160 177 199
124 116 116
106 84 67
106 84 67
127 115 111
148 162 181
146 171 188
152 175 194
161 140 169
152 154 186
154 159 200
149 165 178
175 177 180
169 174 180
165 172 180
162 171 180
160 170 180
158 169 180
157 168 180
156 168 180
156 168 180
156 168 180
157 168 180
158 169 180
160 170 180
163 171 180
166 172 180
170 175 180
179 180 183
167 181 200
164 180 202
158 175 198
162 179 201
170 186 208
171 187 209
166 182 204
172 188 209
138 157 181
136 154 179
137 156 181
137 153 176
138 156 180
138 156 180
129 141 165
131 145 169
138 156 180
139 157 180
138 156 180
138 156 180
138 156 180
112 107 111
106 83 66
106 83 66
146 140 146
144 157 181
153 173 199
142 166 180
119 131 130
127 161 150
134 174 183
167 173 178
175 177 180
171 175 180
168 173 180
165 172 180
164 171 180
162 171 180
161 170 180
161 170 180
161 170 180
161 170 180
161 170 180
162 171 180
164 171 180
166 172 180
168 174 180
171 175 180
176 178 180
154 159 165
109 128 141
141 162 183
142 159 188
141 152 168
150 144 119
137 155 168
139 151 145
131 147 179
80 81 132
82 100 172
98 109 173
113 118 183
134 151 184
88 81 101
53 81 86
106 128 144
128 147 168
88 105 111
132 150 173
137 155 180
109 111 120
100 79 64
99 78 61
135 137 143
177 192 207
180 193 212
172 186 201
187 195 214
181 202 209
165 180 190
180 179 179
177 178 180
174 177 180
172 175 180
170 174 180
168 174 180
167 173 180
167 173 180
166 173 180
166 173 180
166 173 180
166 173 180
167 173 180
168 174 180
170 175 180
172 176 180
174 177 180
177 178 180
172 171 170
82 108 106
92 126 129
70 87 100
100 91 61
89 140 54
123 144 122
112 104 96
97 107 165
77 82 119
74 89 137
70 121 119
77 121 117
124 138 175
140 159 184
93 108 125
66 78 94
123 141 162
93 113 148
122 109 141
130 131 137
145 111 118
102 76 69
93 73 59
133 133 141
197 212 232
196 208 227
197 211 231
196 212 228
196 213 229
192 202 215
182 181 180
180 180 180
178 179 180
176 178 180
175 177 180
174 176 180
173 176 180
172 176 180
172 176 180
172 176 180
172 175 180
172 176 180
173 176 180
173 176 180
175 177 180
176 178 180
178 178 180
180 180 180
183 181 180
134 140 163
76 87 210
62 73 168
90 71 54
66 81 96
128 86 95
73 60 93
110 125 153
128 146 172
121 141 163
128 163 130
146 175 160
130 155 177
154 163 186
109 51 83
106 96 118
112 140 156
89 122 144
96 97 103
80 120 116
83 87 128
70 52 175
67 51 101
89 81 87
189 203 228
196 212 235
193 210 234
191 208 228
194 210 231
169 180 195
169 167 166
183 181 180
182 181 180
181 180 180
180 180 180
179 179 180
179 179 180
178 179 180
178 179 180
178 179 180
178 179 180
178 179 180
179 179 180
179 179 180
180 180 180
181 180 180
182 181 180
183 181 180
171 170 169
121 129 157
40 65 173
97 112 184
146 164 190
150 116 130
165 47 26
135 105 122
97 139 78
124 147 156
128 147 168
104 129 136
42 128 182
39 124 178
113 101 139
98 24 67
101 84 105
74 120 124
86 126 131
148 166 191
141 161 184
100 110 158
65 54 172
69 68 132
62 66 94
145 159 183
193 212 237
183 201 228
192 210 235
195 213 237
161 172 188
91 97 98
112 117 123
137 138 141
155 151 152
161 159 160
160 158 158
174 172 172
171 169 168
174 173 172
173 172 172
176 175 174
173 172 172
174 171 171
171 170 170
166 165 166
158 157 157
146 148 150
131 130 132
99 105 106
117 131 140
114 124 66
133 130 90
169 184 212
148 147 167
131 86 94
131 114 172
70 110 32
102 130 114
131 149 172
135 144 161
126 130 153
108 101 149
123 12 140
119 16 132
116 130 152
96 119 133
82 102 111
122 131 147
118 145 159
162 171 195
173 180 213
141 145 168
68 74 93
74 99 85
168 187 213
188 208 234
188 208 235
189 207 235
160 171 199
97 98 89
81 99 89
102 108 117
94 92 89
83 86 90
76 85 79
90 111 98
95 108 113
103 112 115
92 106 110
93 112 115
91 107 124
76 90 92
88 97 113
77 89 94
98 96 114
92 103 111
98 91 107
82 93 100
90 140 158
89 124 100
104 112 51
137 154 178
134 151 174
135 140 164
135 105 137
28 43 58
66 81 95
126 145 167
154 131 130
184 145 135
161 121 120
112 49 127
142 143 178
151 168 195
135 152 174
131 149 172
129 142 162
136 156 177
138 141 161
127 135 164
54 80 138
66 90 138
92 107 132
57 64 106
149 167 196
183 204 234
138 124 196
108 68 168
87 93 94
88 108 84
107 112 118
108 89 83
102 86 106
107 106 118
100 108 111
95 101 119
84 87 107
122 119 100
101 113 118
71 104 105
93 115 118
108 114 121
77 88 86
88 88 102
76 103 119
82 93 104
78 93 102
21 129 160
31 122 151
102 122 137
113 101 138
111 94 135
120 62 88
123 1 39
94 30 54
130 21 57
128 88 110
127 124 116
130 113 84
123 104 105
123 129 153
137 153 174
140 149 171
131 138 156
134 152 176
106 132 137
60 106 75
78 105 93
65 82 123
23 56 112
23 58 114
97 113 140
45 51 83
49 56 85
139 158 185
92 40 151
86 39 145
93 100 110
80 99 110
90 101 122
106 111 118
100 89 108
94 80 99
109 112 120
105 108 116
93 95 100
99 96 85
107 113 117
108 114 120
105 111 117
103 109 114
89 94 100
62 63 75
83 93 127
98 106 126
91 112 121
44 47 62
48 27 39
66 54 70
88 57 99
92 60 105
95 48 87
104 1 33
116 20 52
117 17 50
134 87 57
170 178 85
167 178 84
151 160 110
138 153 175
162 177 199
175 191 218
144 161 184
133 151 175
57 90 89
51 77 98
49 76 93
88 108 129
39 58 96
57 71 103
113 129 151
121 137 160
122 138 162
116 132 157
99 97 141
71 72 114
82 110 98
74 90 99
54 66 89
90 96 107
100 104 111
104 106 114
117 96 116
135 87 126
116 102 116
104 107 113
103 106 111
100 105 111
63 67 68
79 84 86
96 100 106
93 98 104
88 94 108
104 111 115
114 131 151
42 24 34
44 24 35
46 30 41
97 96 112
122 135 143
120 129 142
112 118 138
97 58 73
93 16 38
108 89 49
138 148 63
120 189 104
78 199 125
89 193 132
126 156 160
132 179 141
132 176 147
130 153 169
54 77 94
47 70 89
46 67 87
97 113 134
122 140 162
126 143 165
128 145 168
118 142 171
126 146 171
126 142 167
128 144 168
102 133 130
55 122 44
85 104 92
80 83 87
86 90 94
96 99 106
95 99 108
51 76 120
60 69 113
89 79 102
100 101 108
102 105 111
92 95 100
74 75 78
92 95 100
102 106 112
102 107 113
104 109 115
119 131 146
123 138 160
84 91 106
50 48 57
92 100 113
150 176 171
154 188 185
163 197 193
131 150 164
48 40 28
48 39 30
98 105 109
103 118 75
66 163 98
78 193 116
63 172 88
117 184 111
119 175 108
120 175 108
115 157 122
78 96 113
38 58 73
41 59 75
110 128 147
125 143 165
129 147 169
85 127 169
81 122 174
77 115 156
115 136 159
126 143 163
99 131 122
48 108 39
47 97 41
86 93 91
95 98 102
92 94 99
89 93 101
25 51 83
21 53 90
59 69 89
92 94 100
93 95 100
92 95 99
95 97 101
97 101 104
99 102 106
104 107 112
112 122 136
125 142 165
124 140 161
127 144 166
126 142 164
119 135 154
100 118 113
120 142 139
126 153 151
120 140 152
43 36 25
43 36 25
74 81 86
119 137 148
84 124 86
95 123 68
54 114 53
106 156 97
113 164 101
110 158 97
110 152 115
114 131 149
90 103 118
95 110 125
116 132 152
121 139 160
117 138 165
85 113 172
85 114 171
81 108 164
90 109 139
126 143 162
120 139 154
55 92 59
34 76 27
77 95 90
85 89 93
85 90 104
70 87 142
50 85 151
51 66 96
75 77 81
82 83 86
90 91 94
90 91 94
91 92 95
94 97 100
93 94 95
107 115 127
121 137 158
122 138 159
128 146 167
126 142 162
125 142 164
126 143 164
107 126 132
93 112 107
104 126 126
106 126 170
36 30 21
38 32 22
98 112 125
146 129 126
178 105 24
180 104 11
161 104 45
97 126 103
94 138 83
85 124 77
112 139 138
124 144 162
128 146 168
129 148 171
128 145 166
128 146 169
134 106 172
133 75 173
115 81 163
78 101 153
93 110 139
116 132 149
114 131 146
95 110 119
96 108 119
97 109 119
105 115 128
155 109 172
162 107 182
154 100 168
82 81 144
69 73 83
74 74 75
75 75 76
80 80 81
79 79 79
94 97 102
112 122 136
115 128 145
96 112 126
92 109 123
99 116 132
121 136 156
127 144 165
123 139 159
118 134 152
112 127 143
117 134 151
89 103 142
120 135 153
86 97 106
109 127 142
137 85 47
138 79 31
150 85 21
153 88 9
131 113 103
104 123 131
114 134 147
123 142 160
122 141 160
126 145 166
126 145 167
127 146 169
130 114 165
138 51 165
145 53 172
138 50 162
103 66 139
89 100 117
103 117 134
108 123 141
109 120 135
107 120 136
105 116 130
102 97 120
179 111 184
181 116 193
182 117 192
146 95 155
45 55 76
53 53 54
51 51 52
67 68 72
83 87 95
91 96 105
100 109 120
94 105 116
83 98 110
85 102 114
81 98 110
96 110 125
124 139 160
123 138 159
127 143 166
123 139 161
126 142 165
70 76 102
146 167 194
133 146 164
103 82 85
99 57 45
100 57 45
103 58 42
132 74 21
134 130 140
132 149 171
131 148 170
129 147 170
131 149 172
132 150 173
130 148 172
126 144 168
128 91 156
134 49 158
127 47 152
128 47 153
117 69 141
104 116 134
109 122 141
112 124 143
109 122 142
111 123 143
98 109 133
98 98 145
104 67 128
110 72 122
114 74 119
105 72 113
124 122 101
152 149 108
144 141 105
105 106 100
97 104 117
102 110 121
108 117 131
92 103 116
77 91 102
79 94 105
77 91 103
93 107 121
122 136 156
123 138 159
119 135 157
122 137 159
117 132 156
74 81 106
138 155 177
102 107 119
88 51 39
90 52 40
90 52 40
89 51 40
105 78 75
126 137 156
128 143 164
132 147 169
131 147 170
133 149 172
131 147 171
130 145 169
129 145 169
121 109 152
117 42 137
118 42 138
115 41 139
115 104 143
123 137 160
122 137 159
120 134 156
119 133 154
99 112 157
44 62 168
31 52 171
35 52 170
83 59 137
102 63 108
127 114 104
183 178 124
177 177 127
179 178 127
177 170 121
113 122 135
113 125 142
110 120 136
103 114 130
68 79 88
69 81 91
67 80 89
104 117 134
124 140 161
116 132 152
120 135 157
116 135 156
103 157 178
92 159 182
159 176 193
136 150 166
83 48 39
85 48 38
85 51 38
84 79 52
93 106 92
121 135 149
127 139 160
130 145 168
128 143 166
125 140 163
130 146 169
131 147 170
122 134 158
117 125 150
98 78 121
88 42 103
94 69 113
106 111 136
118 128 153
125 141 165
122 137 161
125 140 164
53 67 153
28 47 155
29 48 159
29 49 159
29 48 154
100 103 130
120 114 107
128 124 96
182 175 119
177 172 118
150 153 102
118 127 135
124 139 159
116 129 148
103 113 129
89 98 112
82 93 105
89 100 115
113 129 148
114 129 149
125 141 162
123 140 160
88 149 165
83 172 199
81 171 200
174 192 217
138 154 175
90 82 90
70 54 37
74 138 83
73 156 93
74 157 94
81 153 103
117 140 149
129 144 168
129 144 166
132 148 171
132 148 172
130 144 170
129 142 169
126 139 164
122 132 157
116 123 149
119 128 152
125 137 161
124 137 161
126 139 163
128 143 167
127 141 166
52 67 152
26 44 144
27 45 148
28 46 152
28 46 147
114 127 158
118 125 126
95 92 70
119 118 83
119 120 83
116 117 83
124 139 156
127 143 166
122 138 159
124 141 163
123 140 162
125 143 165
130 148 171
127 145 167
130 148 170
109 152 173
76 162 181
60 172 190
71 175 196
85 176 198
119 140 150
108 124 130
105 114 129
74 123 89
67 145 85
68 146 87
67 145 87
66 140 92
81 130 130
120 136 168
131 150 176
131 148 172
131 148 173
133 150 174
132 149 173
133 149 174
132 148 173
130 145 169
131 148 172
131 148 172
129 146 170
129 145 169
128 143 167
125 139 163
84 98 152
24 41 135
25 41 136
25 42 138
55 67 133
122 138 160
123 136 154
107 107 94
103 98 65
110 105 72
117 123 120
127 142 160
125 141 159
130 148 170
130 148 170
132 150 174
131 149 172
129 147 169
132 151 174
117 152 173
49 163 180
47 169 186
45 165 183
47 170 187
45 146 155
106 180 47
105 179 37
106 161 87
73 132 80
59 131 74
58 129 74
58 116 117
63 98 182
63 89 195
65 90 194
85 106 187
127 146 174
134 151 175
133 151 174
134 152 176
133 149 173
132 149 173
131 149 173
131 149 171
130 148 172
131 148 173
129 147 172
128 145 170
116 131 155
109 124 149
60 70 116
33 43 109
57 67 115
97 110 135
111 123 140
115 127 144
105 114 123
99 104 108
105 113 119
118 129 139
128 142 157
127 143 161
129 145 166
128 146 167
129 148 169
130 149 172
128 146 168
127 147 169
81 145 162
42 151 167
42 154 171
42 155 172
43 156 175
42 153 172
102 175 26
100 173 26
99 171 26
78 143 41
52 116 61
48 106 72
56 84 164
60 85 183
59 84 183
60 85 186
60 86 187
94 114 177
129 148 170
133 151 174
134 153 176
134 152 175
134 152 176
132 151 175
132 151 175
132 150 175
132 150 174
128 146 171
125 142 168
123 139 165
115 130 156
107 122 147
105 118 141
104 117 140
109 123 145
113 129 153
122 138 161
120 140 157
100 141 147
84 140 138
95 141 144
115 142 155
129 147 169
129 146 166
131 150 172
126 145 167
128 147 168
128 147 170
130 150 173
78 143 158
40 145 160
40 148 163
40 147 162
40 145 162
41 147 164
94 164 24
97 166 25
93 160 24
84 145 33
55 102 64
43 90 86
53 77 160
58 81 176
57 81 175
57 80 174
55 78 171
68 89 174
126 145 169
130 148 172
133 151 174
132 150 173
133 152 174
133 151 175
132 150 174
132 150 176
131 150 174
131 149 174
133 151 175
128 147 172
127 145 171
129 147 172
130 148 173
127 145 170
128 146 168
132 149 172
127 147 169
86 138 139
61 137 126
62 138 128
62 138 129
70 140 132
113 146 159
128 148 171
130 150 173
132 151 174
127 147 171
126 146 169
124 145 166
103 137 155
44 135 147
37 136 149
37 136 150
38 138 154
52 132 147
89 154 23
90 156 23
88 152 23
77 130 40
87 108 112
62 86 98
53 75 159
52 74 159
53 75 162
54 76 164
55 77 165
75 94 165
125 144 168
127 146 169
129 147 170
129 148 170
130 149 173
132 151 174
132 151 175
135 153 178
132 151 175
132 151 176
134 153 176
135 153 178
135 153 178
133 151 176
132 151 176
134 153 177
134 152 177
132 151 175
114 144 159
58 129 118
59 132 121
59 130 120
59 131 120
58 129 120
73 129 126
127 149 173
131 151 175
128 147 170
128 148 171
124 144 166
120 142 164
108 131 149
81 119 135
45 112 124
34 114 126
58 114 128
95 124 137
