P3
4 2
255
210 229 255
210 229 255
210 229 255
210 229 255
213 231 255
213 231 255
213 231 255
213 231 255
